# xmcd
#
# Track frame offsets:
#	150
#	14780
#	29264
#	43575
#	55140
#	72152
#	90845
#	105898
#	120794
#	137836
#	154651
#	169351
#	185171
#	201268
#
# Disc length: 2846
#
# Revision: 2
# Processed by: cddbd v1.5.1PL0 Copyright (c) Steve Scherf et al.
# Submitted via: audiograbber 1.82.02
# Normalized: r1:DSETVAR1
#
DISCID=b60b1c0e
DTITLE=Various Artist - Hot Hits Country Vol. 83
DYEAR=1998
DGENRE=Country
TTITLE0=Vince Gill - Kindly Keep It Country
TTITLE1=Brooks and Dunn - Husbands And Wives
TTITLE2=Randy Travis - Spirit Of A Boy, Wisdom Of A Man
TTITLE3=George Strait - We Really Shouldn't Be Doing This
TTITLE4=Dixie Chicks - Wide Open Spaces
TTITLE5=Faith Hill - Let Me Let Go
TTITLE6=Toby Keith - Getcha Some
TTITLE7=Martina McBride - Wrong Again
TTITLE8=Pam Tillis - Every Time
TTITLE9=Deryl Dodd - A Bitter End
TTITLE10=Mark Nesler - Slow Down
TTITLE11=Mark Chesnutt - Wherever You Are
TTITLE12=Dwight Yoakam - These Arms
TTITLE13=Danni Leigh - If The Jukebox Took Teardrops
EXTD=
EXTT0=
EXTT1=
EXTT2=
EXTT3=
EXTT4=
EXTT5=
EXTT6=
EXTT7=
EXTT8=
EXTT9=
EXTT10=
EXTT11=
EXTT12=
EXTT13=
PLAYORDER=
